#!OML:ASF X:\für Bonn\!DataBase\2005_08_11_Bastian_Final\c3d\Bastian.ASF
:FULLY-SPECIFIED
:DEGREES
110
root -6.95486 21.2203 -2.01064 168.636 -55.1089 -178.285
lowerback 2.76866 -5.03209 -5.85143
upperback -0.667377 -7.01447 -2.27643
thorax -1.82596 -3.46542 1.18166
lowerneck 3.24062 -17.2247 -8.6381
upperneck 1.4853 -24.0155 11.8245
head 2.38483 -12.1454 4.03577
rclavicle -4.7112e-014 7.95139e-015
rhumerus -344.874 -12.0015 -380.671
rradius 106.448
rwrist 12.2945
rhand -62.3967 799.658
rfingers 7.12502
rthumb -34.4304 52.9704
lclavicle -4.7112e-014 7.95139e-015
lhumerus 93.397 -2.08406 52.5755
lradius 73.0544
lwrist -136.89
lhand -10.6124 42.9447
lfingers 7.12502
lthumb 15.3939 72.3515
rfemur 1.73799 -2.12805 17.2118
rtibia 36.7629
rfoot 20.0802 1.16443
rtoes -19.7635
lfemur 10.7494 3.68495 -9.15881
ltibia 34.5648
lfoot 17.8832 -8.0914
ltoes -43.618
111
root -6.94075 21.3897 -2.04821 167.484 -54.92 -177.801
lowerback 3.59386 -4.98213 -5.59339
upperback -0.513743 -6.99094 -2.26062
thorax -2.15794 -3.4481 1.13216
lowerneck 3.05134 -17.1834 -8.69009
upperneck 1.74704 -23.9649 11.7121
head 2.47961 -12.1099 3.98396
rclavicle -2.5842e-015 3.02153e-014
rhumerus -344.131 -12.3268 -380.871
rradius 104.926
rwrist 12.3284
rhand -62.2602 802.545
rfingers 7.12502
rthumb -34.3008 55.8288
lclavicle -2.5842e-015 3.02153e-014
lhumerus 93.5737 -2.22008 53.0363
lradius 73.2324
lwrist -137.602
lhand -10.9641 43.8484
lfingers 7.12502
lthumb 15.055 73.281
rfemur 2.04051 -3.32912 17.492
rtibia 38.5153
rfoot 20.7698 1.96427
rtoes -18.5279
lfemur 11.0516 2.99808 -9.60546
ltibia 34.8159
lfoot 17.4683 -8.82634
ltoes -41.1411
112
root -6.92546 21.5504 -2.08682 166.41 -54.7393 -177.369
lowerback 4.39772 -4.94937 -5.43611
upperback -0.37307 -6.98809 -2.18906
thorax -2.47137 -3.43972 1.1921
lowerneck 3.01017 -17.1354 -8.80045
upperneck 1.90459 -23.902 11.6008
head 2.52571 -12.0739 3.95981
rclavicle 7.95139e-014 3.49861e-014
rhumerus -343.284 -12.4459 -381.019
rradius 103.315
rwrist 12.1905
rhand -62.1177 805.2
rfingers 7.12502
rthumb -34.1655 58.4531
lclavicle 7.95139e-014 3.49861e-014
lhumerus 93.7056 -2.33281 53.541
lradius 73.3806
lwrist -138.432
lhand -11.5912 44.8338
lfingers 7.12502
lthumb 14.4509 74.3107
rfemur 2.37429 -3.66125 18.0037
rtibia 40.0818
rfoot 20.7875 1.34325
rtoes -17.4959
lfemur 11.466 2.44391 -10.0695
ltibia 34.8357
lfoot 16.2985 -9.61865
ltoes -40.5784
113
root -6.91342 21.7108 -2.12857 165.458 -54.5596 -176.987
lowerback 5.07606 -4.93494 -5.30653
upperback -0.242295 -7.00066 -2.1197
thorax -2.72089 -3.44082 1.25341
lowerneck 3.10571 -17.0714 -8.8682
upperneck 1.94388 -23.8188 11.5293
head 2.51314 -12.0348 3.96295
rclavicle -5.12864e-014 -3.18055e-015
rhumerus -342.37 -12.4102 -381.23
rradius 101.646
rwrist 11.8051
rhand -61.8391 807.553
rfingers 7.12502
rthumb -33.9008 60.7473
lclavicle -5.12864e-014 -3.18055e-015
lhumerus 93.7954 -2.40778 53.9203
lradius 73.5612
lwrist -139.377
lhand -12.2556 45.8411
lfingers 7.12502
lthumb 13.8107 75.3627
rfemur 2.73031 -3.46924 18.6814
rtibia 41.3886
rfoot 20.4395 0.398548
rtoes -16.8328
lfemur 11.9639 2.16806 -10.489
ltibia 34.6187
lfoot 14.6365 -10.1608
ltoes -41.519
114
root -6.90572 21.8715 -2.17275 164.823 -54.3877 -176.818
lowerback 5.54115 -4.9179 -5.29016
upperback -0.114009 -7.00296 -2.08335
thorax -2.84512 -3.43989 1.32052
lowerneck 3.26221 -17.0054 -8.90017
upperneck 1.93266 -23.7374 11.5017
head 2.47751 -11.9999 3.98216
rclavicle 5.80451e-014 -1.98785e-014
rhumerus -341.444 -12.2692 -381.457
rradius 99.9163
rwrist 11.1484
rhand -61.443 809.455
rfingers 7.12502
rthumb -33.5244 62.5673
lclavicle 5.80451e-014 -1.98785e-014
lhumerus 93.9782 -2.47194 54.175
lradius 73.7634
lwrist -140.471
lhand -12.7885 46.7607
lfingers 7.12502
lthumb 13.2971 76.3165
rfemur 3.02234 -3.08033 19.2726
rtibia 42.3478
rfoot 20.0372 -0.318595
rtoes -16.5027
lfemur 12.4334 2.10102 -10.9874
ltibia 34.2059
lfoot 13.2043 -9.89459
ltoes -42.6891
115
root -6.90096 22.0335 -2.22083 164.598 -54.2623 -176.919
lowerback 5.78881 -4.90798 -5.45026
upperback -0.030188 -7.01469 -2.06691
thorax -2.8751 -3.44389 1.44404
lowerneck 3.5149 -16.9399 -8.8847
upperneck 1.81864 -23.65 11.4627
head 2.38873 -11.966 4.00851
rclavicle -1.33981e-013 -3.10104e-014
rhumerus -340.491 -12.0697 -381.708
rradius 98.1329
rwrist 10.2519
rhand -60.9609 988.881
rfingers 7.12502
rthumb -33.0661 64.1324
lclavicle -1.33981e-013 -3.10104e-014
lhumerus 94.2276 -2.44336 54.2457
lradius 74.0025
lwrist -141.524
lhand -13.125 47.5131
lfingers 7.12502
lthumb 12.9727 77.0898
rfemur 3.20156 -2.3466 19.7716
rtibia 42.9089
rfoot 19.398 -0.898682
rtoes -16.8909
lfemur 12.751 2.23784 -11.5928
ltibia 33.6984
lfoot 12.2414 -8.62039
ltoes -43.0719
116
root -6.8972 22.1874 -2.2695 164.756 -54.1567 -177.288
lowerback 5.77114 -4.92099 -5.76875
upperback 0.0662079 -7.05149 -2.10856
thorax -2.73081 -3.46526 1.56799
lowerneck 3.79861 -16.8564 -8.78676
upperneck 1.6504 -23.5396 11.4716
head 2.2733 -11.9234 4.04616
rclavicle 2.14687e-014 4.21423e-014
rhumerus -339.436 -11.8375 -382.123
rradius 96.2743
rwrist 9.21168
rhand -60.4456 987.609
rfingers 7.12502
rthumb -32.576 65.3026
lclavicle 2.14687e-014 4.21423e-014
lhumerus 94.5303 -2.38019 54.1524
lradius 74.1916
lwrist -142.65
lhand -13.2799 48.2614
lfingers 7.12502
lthumb 12.8234 77.8475
rfemur 3.29629 -1.36009 20.1117
rtibia 43.0538
rfoot 18.4537 -1.40746
rtoes -17.711
lfemur 12.8864 2.5563 -12.3104
ltibia 33.2034
lfoot 11.5895 -6.52556
ltoes -42.4219
117
root -6.89027 22.3237 -2.31595 164.805 -54.0105 -177.437
lowerback 5.67742 -4.9268 -5.96306
upperback 0.153261 -7.06064 -2.09789
thorax -2.56316 -3.47449 1.66926
lowerneck 4.05931 -16.7972 -8.69893
upperneck 1.46498 -23.4547 11.4627
head 2.15794 -11.8919 4.0765
rclavicle -3.49861e-014 2.06736e-014
rhumerus -338.41 -11.6687 -382.538
rradius 94.3404
rwrist 8.12272
rhand -59.9756 986.57
rfingers 7.12502
rthumb -32.1286 66.2504
lclavicle -3.49861e-014 2.06736e-014
lhumerus 94.6966 -2.5662 54.2743
lradius 74.2157
lwrist -144.013
lhand -13.2929 49.1698
lfingers 7.12502
lthumb 12.8108 78.7567
rfemur 3.39775 -0.255357 20.5954
rtibia 42.8181
rfoot 17.4235 -1.955
rtoes -19.1954
lfemur 12.8804 3.14471 -12.7392
ltibia 32.823
lfoot 10.9868 -4.24476
ltoes -41.4583
118
root -6.88059 22.4508 -2.36028 164.669 -53.8609 -177.303
lowerback 5.56218 -4.96578 -5.99049
upperback 0.218516 -7.09854 -2.04332
thorax -2.4181 -3.49804 1.72587
lowerneck 4.26841 -16.7352 -8.65209
upperneck 1.37561 -23.3736 11.4457
head 2.08341 -11.8597 4.09854
rclavicle -4.92986e-014 -3.18055e-015
rhumerus -337.338 -11.418 -383.067
rradius 92.2897
rwrist 6.99889
rhand -59.5053 985.581
rfingers 7.12502
rthumb -31.6807 67.1492
lclavicle -4.92986e-014 -3.18055e-015
lhumerus 94.7218 -3.00464 54.6031
lradius 74.0571
lwrist -145.545
lhand -13.267 50.1733
lfingers 7.12502
lthumb 12.8358 79.7587
rfemur 3.52064 0.865445 21.2267
rtibia 42.2674
rfoot 16.5133 -2.63085
rtoes -20.3395
lfemur 12.7152 3.87867 -12.8761
ltibia 32.6372
lfoot 10.3278 -2.17811
ltoes -40.8682
119
root -6.86906 22.5643 -2.40343 164.573 -53.7071 -177.133
lowerback 5.3488 -4.99726 -6.0191
upperback 0.289415 -7.11727 -1.96902
thorax -2.21101 -3.51389 1.79149
lowerneck 4.43123 -16.6816 -8.65633
upperneck 1.28379 -23.3095 11.5106
head 2.03263 -11.8352 4.14156
rclavicle -3.598e-014 -3.18055e-015
rhumerus -336.253 -11.2768 -383.605
rradius 90.1634
rwrist 5.86194
rhand -59.083 984.801
rfingers 7.12502
rthumb -31.2784 67.8507
lclavicle -3.598e-014 -3.18055e-015
lhumerus 94.7966 -3.51493 54.9147
lradius 73.7756
lwrist -147.055
lhand -12.9516 51.0897
lfingers 7.12502
lthumb 13.1399 80.6557
rfemur 3.59635 1.87596 21.7848
rtibia 41.5146
rfoot 15.4696 -3.33629
rtoes -20.2686
lfemur 12.3872 4.82091 -12.8955
ltibia 32.6689
lfoot 9.66744 -0.423909
ltoes -40.4289
120
root -6.85467 22.6609 -2.44536 164.465 -53.5398 -176.899
lowerback 5.09867 -5.03462 -6.01927
upperback 0.349349 -7.13854 -1.87236
thorax -1.99513 -3.531 1.86124
lowerneck 4.53429 -16.6272 -8.73013
upperneck 1.25095 -23.2495 11.5935
head 2.01897 -11.81 4.1875
rclavicle -1.47896e-013 2.46493e-014
rhumerus -335.077 -11.1674 -384.241
rradius 87.9222
rwrist 4.83757
rhand -58.7328 984.245
rfingers 7.12502
rthumb -30.9447 68.3425
lclavicle -1.47896e-013 2.46493e-014
lhumerus 94.8484 -4.03512 55.1739
lradius 73.3389
lwrist -148.323
lhand -12.5508 51.9061
lfingers 7.12502
lthumb 13.5262 81.4468
rfemur 3.60952 2.79403 22.3185
rtibia 40.6702
rfoot 14.6249 -3.76926
rtoes -19.8761
lfemur 11.9705 5.87763 -12.8299
ltibia 32.8476
lfoot 9.08699 1.16533
ltoes -39.3514
121
root -6.8388 22.7434 -2.48585 164.328 -53.3883 -176.613
lowerback 4.86855 -5.07475 -5.97759
upperback 0.391738 -7.16419 -1.78145
thorax -1.81409 -3.5492 1.90567
lowerneck 4.65397 -16.5874 -8.76088
upperneck 1.21878 -23.2051 11.627
head 1.99375 -11.7929 4.21629
rclavicle -8.13029e-014 -4.77083e-014
rhumerus -333.922 -11.0671 -384.891
rradius 85.6309
rwrist 3.86326
rhand -58.481 983.894
rfingers 7.12502
rthumb -30.7046 68.6482
lclavicle -8.13029e-014 -4.77083e-014
lhumerus 94.917 -4.58796 55.3588
lradius 72.7469
lwrist -149.449
lhand -12.102 52.6182
lfingers 7.12502
lthumb 13.9587 82.1296
rfemur 3.56082 3.53158 22.811
rtibia 39.843
rfoot 14.0091 -3.7093
rtoes -20.253
lfemur 11.4858 6.95025 -12.7045
ltibia 33.1123
lfoot 8.66082 2.20902
ltoes -38.0042
